<svg width="1608" height="636" viewBox="0 0 1608 636" fill="none" xmlns="http://www.w3.org/2000/svg">
<rect opacity="0.4" x="111.168" y="35.5355" width="25" height="25" transform="rotate(45 111.168 35.5355)" stroke="#F8D008" stroke-width="5"/>
<rect opacity="0.4" x="0.000732422" y="490.745" width="8.12514" height="34.0886" transform="rotate(-45 0.000732422 490.745)" fill="#6845AE"/>
<rect opacity="0.4" x="24.1042" y="485.15" width="8.12514" height="34.0886" transform="rotate(45 24.1042 485.15)" fill="#6845AE"/>
<g opacity="0.5">
<circle cx="207.5" cy="2.5" r="2.5" fill="#6B2C88"/>
<circle cx="225.5" cy="2.5" r="2.5" fill="#6B2C88"/>
<circle cx="243.5" cy="2.5" r="2.5" fill="#6B2C88"/>
<circle cx="261.5" cy="2.5" r="2.5" fill="#6B2C88"/>
<circle cx="279.5" cy="2.5" r="2.5" fill="#6B2C88"/>
<circle cx="297.5" cy="2.5" r="2.5" fill="#6B2C88"/>
<circle cx="315.5" cy="2.5" r="2.5" fill="#6B2C88"/>
<circle cx="207.5" cy="23.5" r="2.5" fill="#6B2C88"/>
<circle cx="225.5" cy="23.5" r="2.5" fill="#6B2C88"/>
<circle cx="243.5" cy="23.5" r="2.5" fill="#6B2C88"/>
<circle cx="261.5" cy="23.5" r="2.5" fill="#6B2C88"/>
<circle cx="279.5" cy="23.5" r="2.5" fill="#6B2C88"/>
<circle cx="297.5" cy="23.5" r="2.5" fill="#6B2C88"/>
<circle cx="315.5" cy="23.5" r="2.5" fill="#6B2C88"/>
<circle cx="207.5" cy="44.5" r="2.5" fill="#6B2C88"/>
<circle cx="225.5" cy="44.5" r="2.5" fill="#6B2C88"/>
<circle cx="243.5" cy="44.5" r="2.5" fill="#6B2C88"/>
<circle cx="261.5" cy="44.5" r="2.5" fill="#6B2C88"/>
<circle cx="279.5" cy="44.5" r="2.5" fill="#6B2C88"/>
<circle cx="297.5" cy="44.5" r="2.5" fill="#6B2C88"/>
<circle cx="315.5" cy="44.5" r="2.5" fill="#6B2C88"/>
<circle cx="207.5" cy="65.5" r="2.5" fill="#6B2C88"/>
<circle cx="225.5" cy="65.5" r="2.5" fill="#6B2C88"/>
<circle cx="243.5" cy="65.5" r="2.5" fill="#6B2C88"/>
<circle cx="261.5" cy="65.5" r="2.5" fill="#6B2C88"/>
<circle cx="279.5" cy="65.5" r="2.5" fill="#6B2C88"/>
<circle cx="297.5" cy="65.5" r="2.5" fill="#6B2C88"/>
<circle cx="315.5" cy="65.5" r="2.5" fill="#6B2C88"/>
<circle cx="207.5" cy="86.5" r="2.5" fill="#6B2C88"/>
<circle cx="225.5" cy="86.5" r="2.5" fill="#6B2C88"/>
<circle cx="243.5" cy="86.5" r="2.5" fill="#6B2C88"/>
<circle cx="261.5" cy="86.5" r="2.5" fill="#6B2C88"/>
<circle cx="279.5" cy="86.5" r="2.5" fill="#6B2C88"/>
<circle cx="297.5" cy="86.5" r="2.5" fill="#6B2C88"/>
<circle cx="315.5" cy="86.5" r="2.5" fill="#6B2C88"/>
</g>
<path d="M1350.84 65.7985C1349.34 67.2202 1347.01 67.2659 1345.45 65.9037C1343.82 64.4647 1343.64 61.9771 1345.05 60.318L1374.2 26.1459C1376.57 23.3587 1380.81 23.158 1383.44 25.7082C1386.03 28.2182 1386.01 32.3782 1383.39 34.8619L1350.84 65.7985Z" fill="#F8D008"/>
<path d="M1353.68 76.6933C1352.54 77.2163 1351.18 76.7901 1350.55 75.7071C1349.87 74.5549 1350.25 73.0739 1351.39 72.3805L1371.96 59.8844C1373.85 58.7349 1376.32 59.4171 1377.36 61.3749C1378.39 63.3276 1377.57 65.7456 1375.56 66.6657L1353.68 76.6933Z" fill="#F8D008"/>
<path d="M897.808 536.511C899.304 535.089 901.638 535.043 903.189 536.406C904.827 537.845 905.006 540.332 903.591 541.991L874.448 576.163C872.071 578.951 867.834 579.151 865.204 576.601C862.616 574.091 862.637 569.931 865.251 567.447L897.808 536.511Z" fill="#F8D008"/>
<path d="M894.966 525.616C896.107 525.093 897.459 525.519 898.094 526.602C898.769 527.754 898.395 529.235 897.254 529.929L876.684 542.425C874.791 543.574 872.322 542.892 871.288 540.934C870.256 538.982 871.078 536.564 873.086 535.644L894.966 525.616Z" fill="#F8D008"/>
<path d="M1282 636C1423.38 636 1538 521.385 1538 380C1538 238.615 1423.38 124 1282 124C1140.62 124 1026 238.615 1026 380C1026 521.385 1140.62 636 1282 636Z" fill="url(#paint0_linear)"/>
<path d="M1282 410.118C1298.63 410.118 1312.12 396.634 1312.12 380C1312.12 363.367 1298.63 349.882 1282 349.882C1265.37 349.882 1251.88 363.367 1251.88 380C1251.88 396.634 1265.37 410.118 1282 410.118Z" fill="#7173F0"/>
<path d="M1282 199.294C1182.2 199.294 1101.29 280.199 1101.29 380C1101.29 479.801 1182.2 560.706 1282 560.706C1381.8 560.706 1462.71 479.801 1462.71 380C1462.71 280.199 1381.8 199.294 1282 199.294ZM1282 485.412C1223.78 485.412 1176.59 438.217 1176.59 380C1176.59 321.783 1223.78 274.588 1282 274.588C1340.22 274.588 1387.41 321.783 1387.41 380C1387.41 438.217 1340.22 485.412 1282 485.412Z" fill="#7172F0"/>
<path d="M1596.72 125.648L1550.19 114.19L1538.73 67.6593C1536.13 57.0749 1522.96 53.4006 1515.25 61.1087L1465.46 110.895C1457.47 118.889 1454.23 130.481 1456.94 141.459L1469.98 194.406L1522.92 207.444C1533.9 210.147 1545.49 206.914 1553.49 198.92L1603.27 149.134C1610.98 141.425 1607.31 128.254 1596.72 125.648Z" fill="#7B7EF7"/>
<path d="M1596.72 125.648L1550.19 114.19L1538.73 67.6593C1536.13 57.075 1522.96 53.4017 1515.25 61.1078L1487.21 89.1433C1479.22 97.1375 1475.99 108.73 1478.69 119.707L1491.73 172.654L1544.68 185.692C1555.65 188.395 1567.25 185.162 1575.24 177.168L1603.27 149.134C1610.98 141.426 1607.31 128.254 1596.72 125.648Z" fill="#7B7EF7"/>
<path d="M1596.72 125.648L1550.19 114.19L1538.73 67.6592C1536.13 57.0759 1522.96 53.4015 1515.25 61.1066L1508.97 67.3922C1500.97 75.3864 1497.74 86.9777 1500.44 97.9556L1513.48 150.903L1566.43 163.941C1577.4 166.644 1589 163.411 1596.99 155.417L1603.27 149.134C1610.98 141.425 1607.31 128.254 1596.72 125.648Z" fill="#7B7EF7"/>
<path d="M1282 397.569C1277.5 397.569 1273.01 395.854 1269.58 392.424C1262.72 385.563 1262.72 374.438 1269.58 367.578L1467.29 169.861C1474.15 163 1485.28 163 1492.14 169.861C1499 176.722 1499 187.846 1492.14 194.707L1294.42 392.424C1290.99 395.854 1286.5 397.569 1282 397.569Z" fill="#7173F0"/>
<defs>
<linearGradient id="paint0_linear" x1="1013.95" y1="380" x2="1532.12" y2="380" gradientUnits="userSpaceOnUse">
<stop stop-color="#7B75F1"/>
<stop offset="1" stop-color="#7A7FF9"/>
</linearGradient>
</defs>
</svg>
