<svg width="24" height="21" viewBox="0 0 24 21" fill="none" xmlns="http://www.w3.org/2000/svg">
<path d="M0.531545 14.2946C1.82137 13.1843 3.26894 13.6192 5.20671 13.854C6.87148 14.0579 8.51076 13.6858 8.40156 12.9698C8.22925 11.8112 7.98658 11.2932 7.43449 9.7925C6.99403 8.59908 6.15801 6.44803 5.39722 4.39167C4.37797 1.64053 4.08312 0.363042 5.43968 0.0441533C6.90181 -0.295029 7.74026 1.35933 8.49984 3.6534C9.36498 6.26442 9.82 7.41726 10.0748 7.35638C10.5238 7.25395 9.90979 6.13687 11.0843 5.86146C12.5525 5.52132 12.8365 6.43546 13.2478 6.34366C13.6591 6.2451 13.5196 5.31935 14.6905 5.04685C15.8675 4.77627 16.4584 5.93007 16.9438 5.81508C17.4243 5.70202 17.4134 5.28553 18.139 5.12029C18.8658 4.94828 21.6007 5.92331 23.166 10.1819C25.1305 15.5364 22.9173 16.5317 23.5883 18.3445L14.8191 21C14.1093 19.6404 11.9107 19.5399 9.96561 18.6731C8.00599 17.7947 6.67491 16.0833 1.56777 16.1664C-0.353012 16.1973 -0.262008 14.9778 0.531545 14.2946Z" fill="#222222"/>
</svg>
