<svg width="91" height="88" viewBox="0 0 91 88" fill="none" xmlns="http://www.w3.org/2000/svg">
<circle cx="44" cy="44" r="35.5" stroke="#FF885E"/>
<circle opacity="0.3" cx="44" cy="44" r="43.5" stroke="#FF885E"/>
<circle cx="44" cy="44" r="31" fill="#FF885E"/>
<path d="M69.5502 53.0224H73.4002V56.4319C73.4002 56.5978 73.4516 56.7336 73.555 56.8397C73.6581 56.9466 73.7899 57 73.9504 57H76.8206C76.9695 57 77.0984 56.9466 77.2073 56.8397C77.3162 56.7336 77.3704 56.5977 77.3704 56.4319V53.0224H86.0501C86.2103 53.0224 86.3422 52.9696 86.4455 52.8628C86.5489 52.7561 86.6002 52.6202 86.6002 52.4543V50.1815C86.6002 50.0165 86.5489 49.8798 86.4455 49.7736C86.3425 49.6668 86.2103 49.6134 86.0501 49.6134H77.3702V47.5181H83.2139C85.5055 47.5181 87.3758 46.7968 88.8257 45.352C90.275 43.9088 91 42.0445 91 39.759C91 37.4751 90.275 35.6108 88.8257 34.1661C87.3761 32.7228 85.5054 32 83.2139 32H73.9501C73.7895 32 73.658 32.0534 73.5547 32.1596C73.4516 32.2664 73.4 32.4031 73.4 32.568V43.7366H69.5502C69.3896 43.7366 69.2581 43.7927 69.1547 43.9052C69.0517 44.0176 69 44.1508 69 44.3046V46.95C69 47.1158 69.0514 47.2517 69.1547 47.3585C69.2581 47.4653 69.3893 47.518 69.5502 47.518H73.4002V49.6133H69.5502C69.3896 49.6133 69.2581 49.6667 69.1547 49.7736C69.0517 49.8797 69 50.0162 69 50.1814V52.4542C69 52.6201 69.0514 52.756 69.1547 52.8627C69.2581 52.9696 69.3896 53.0224 69.5502 53.0224ZM77.3702 35.7823H82.8702C84.0846 35.7823 85.0642 36.1492 85.8092 36.883C86.5538 37.617 86.9263 38.5761 86.9263 39.7593C86.9263 40.9432 86.5538 41.9026 85.8092 42.6356C85.0642 43.3702 84.0846 43.737 82.8702 43.737H77.3702V35.7823Z" fill="white"/>
<path d="M41.4043 37.0488C41.4043 38.6543 40.918 40.0195 39.9453 41.1445C38.9727 42.2695 37.6074 43.043 35.8496 43.4648V43.5703C37.9238 43.8281 39.4941 44.4609 40.5605 45.4688C41.627 46.4648 42.1602 47.8125 42.1602 49.5117C42.1602 51.9844 41.2637 53.9121 39.4707 55.2949C37.6777 56.666 35.1172 57.3516 31.7891 57.3516C29 57.3516 26.5273 56.8887 24.3711 55.9629V51.3398C25.3672 51.8438 26.4629 52.2539 27.6582 52.5703C28.8535 52.8867 30.0371 53.0449 31.209 53.0449C33.002 53.0449 34.3262 52.7402 35.1816 52.1309C36.0371 51.5215 36.4648 50.543 36.4648 49.1953C36.4648 47.9883 35.9727 47.1328 34.9883 46.6289C34.0039 46.125 32.4336 45.873 30.2773 45.873H28.3262V41.707H30.3125C32.3047 41.707 33.7578 41.4492 34.6719 40.9336C35.5977 40.4062 36.0605 39.5098 36.0605 38.2441C36.0605 36.2988 34.8418 35.3262 32.4043 35.3262C31.5605 35.3262 30.6992 35.4668 29.8203 35.748C28.9531 36.0293 27.9863 36.5156 26.9199 37.207L24.4062 33.4629C26.75 31.7754 29.5449 30.9316 32.791 30.9316C35.4512 30.9316 37.5488 31.4707 39.084 32.5488C40.6309 33.627 41.4043 35.127 41.4043 37.0488ZM62.832 44.1504C62.832 48.6387 62.0938 51.9609 60.6172 54.1172C59.1523 56.2734 56.8906 57.3516 53.832 57.3516C50.8672 57.3516 48.6289 56.2383 47.1172 54.0117C45.6172 51.7852 44.8672 48.498 44.8672 44.1504C44.8672 39.6152 45.5996 36.2754 47.0645 34.1309C48.5293 31.9746 50.7852 30.8965 53.832 30.8965C56.7969 30.8965 59.0352 32.0215 60.5469 34.2715C62.0703 36.5215 62.832 39.8145 62.832 44.1504ZM50.2637 44.1504C50.2637 47.3027 50.5332 49.5645 51.0723 50.9355C51.623 52.2949 52.543 52.9746 53.832 52.9746C55.0977 52.9746 56.0117 52.2832 56.5742 50.9004C57.1367 49.5176 57.418 47.2676 57.418 44.1504C57.418 40.998 57.1309 38.7363 56.5566 37.3652C55.9941 35.9824 55.0859 35.291 53.832 35.291C52.5547 35.291 51.6406 35.9824 51.0898 37.3652C50.5391 38.7363 50.2637 40.998 50.2637 44.1504Z" fill="white"/>
</svg>
